<?xml version="1.0" encoding="iso-8859-1"?>
<!-- Generator: Adobe Illustrator 19.0.0, SVG Export Plug-In . SVG Version: 6.00 Build 0)  -->
<svg version="1.1" id="Capa_1" xmlns="http://www.w3.org/2000/svg" xmlns:xlink="http://www.w3.org/1999/xlink" x="0px" y="0px"
	 viewBox="0 0 495.968 495.968" style="enable-background:new 0 0 495.968 495.968;" xml:space="preserve">
<g>
	<g>
		<g>
			<path d="M495.152,176.253l0.048,0c-0.315-3.069-2.366-5.684-5.272-6.72l-29.448-10.464c-2.581-9.124-6.234-17.91-10.88-26.176
				l13.392-28.16c1.325-2.786,0.929-6.086-1.016-8.48c-6.638-8.173-14.102-15.639-22.272-22.28c-2.394-1.945-5.694-2.341-8.48-1.016
				l-28.136,13.424c-8.272-4.636-17.06-8.282-26.184-10.864l-10.456-29.44c-1.034-2.909-3.649-4.964-6.72-5.28
				c-10.458-1.08-20.998-1.08-31.456,0c-3.071,0.316-5.687,2.371-6.72,5.28l-10.456,29.416c-9.125,2.589-17.913,6.244-26.184,10.888
				l-28.168-13.4c-2.786-1.325-6.086-0.929-8.48,1.016c-8.17,6.641-15.634,14.107-22.272,22.28c-1.945,2.394-2.341,5.694-1.016,8.48
				l7.256,15.224H112c-3.572,0.003-6.709,2.373-7.688,5.808L73.968,231.981H8c-4.418,0-8,3.582-8,8v32c0,4.418,3.582,8,8,8h24v96
				c0,17.673,14.327,32,32,32v24c0,13.255,10.745,24,24,24h48c13.255,0,24-10.745,24-24v-24h144v24c0,13.255,10.745,24,24,24h48
				c13.255,0,24-10.745,24-24v-24c17.673,0,32-14.327,32-32v-64.744c2.62,0.962,5.552,0.489,7.736-1.248
				c8.17-6.641,15.634-14.107,22.272-22.28c1.945-2.394,2.341-5.694,1.016-8.48l-13.424-28.16
				c4.635-8.267,8.277-17.053,10.848-26.176l29.432-10.464c2.906-1.036,4.958-3.651,5.272-6.72
				C496.24,197.252,496.24,186.71,495.152,176.253z M118.032,135.981h118.84c-2.682,5.16-4.987,10.507-6.896,16H136
				c-3.534,0-6.65,2.319-7.664,5.704l-22.288,74.296h-15.44L118.032,135.981z M192.824,207.709H192.8
				c0.315,3.069,2.366,5.684,5.272,6.72l29.432,10.464c0.68,2.4,1.6,4.728,2.456,7.088h-107.2l19.2-64h60.512l-4.376,1.552
				c-2.906,1.036-4.958,3.651-5.272,6.72C191.736,186.71,191.736,197.252,192.824,207.709z M83.312,247.981h153.6
				c0.488,1.016,0.896,2.088,1.488,3.088h-0.048l-13.392,28.16c-0.112,0.24-0.144,0.504-0.232,0.752H51.312L83.312,247.981z
				 M16,263.981v-16h44.688l-16,16H16z M144,431.981c0,4.418-3.582,8-8,8H88c-4.418,0-8-3.582-8-8v-24h64V431.981z M384,431.981
				c0,4.418-3.582,8-8,8h-48c-4.418,0-8-3.582-8-8v-24h64V431.981z M416,375.981c0,8.837-7.163,16-16,16H64c-8.837,0-16-7.163-16-16
				v-80h185.448c4.622,4.993,9.572,9.673,14.816,14.008c2.394,1.945,5.694,2.341,8.48,1.016l28.168-13.424
				c8.272,4.636,17.06,8.282,26.184,10.864l10.456,29.416c1.034,2.909,3.649,4.964,6.72,5.28c2.904,0.304,5.824,0.32,8.752,0.456
				c4.193,17.137,21.484,27.63,38.62,23.437c17.137-4.193,27.63-21.484,23.437-38.62c-2.328-9.515-8.892-17.435-17.81-21.489
				c7.562-2.389,14.87-5.518,21.816-9.344L416,303.749V375.981z M353.944,343.469c1.936-0.128,3.864-0.104,5.784-0.304
				c3.071-0.316,5.686-2.371,6.72-5.28l6.104-17.168c8.452,2.486,13.288,11.353,10.802,19.805s-11.353,13.288-19.805,10.802
				C359.418,350.109,355.954,347.276,353.944,343.469z M479.696,201.077l-28.552,10.152c-2.542,0.903-4.458,3.026-5.096,5.648
				c-2.543,10.455-6.688,20.453-12.288,29.64c-1.41,2.306-1.56,5.167-0.4,7.608l13.04,27.328
				c-4.015,4.594-8.334,8.913-12.928,12.928l-27.336-13.04c-2.435-1.157-5.289-1.01-7.592,0.392
				c-9.189,5.604-19.19,9.752-29.648,12.296c-2.622,0.638-4.745,2.554-5.648,5.096l-10.152,28.552
				c-6.057,0.408-12.135,0.408-18.192,0l-10.152-28.552c-0.903-2.542-3.026-4.458-5.648-5.096
				c-10.458-2.544-20.459-6.692-29.648-12.296c-2.303-1.401-5.157-1.549-7.592-0.392l-27.336,13.04
				c-4.579-4.003-8.885-8.309-12.888-12.888l13-27.328c1.16-2.441,1.01-5.302-0.4-7.608c-5.597-9.189-9.742-19.186-12.288-29.64
				c-0.638-2.622-2.554-4.745-5.096-5.648l-28.552-10.152c-0.2-3.08-0.304-6.128-0.304-9.136s0.104-6.056,0.304-9.096l28.552-10.152
				c2.542-0.903,4.458-3.026,5.096-5.648c2.546-10.453,6.691-20.451,12.288-29.64c1.41-2.306,1.56-5.167,0.4-7.608l-13-27.328
				c4.003-4.579,8.309-8.885,12.888-12.888l27.336,13c2.439,1.157,5.296,1.007,7.6-0.4c9.177-5.592,19.161-9.737,29.6-12.288
				c2.622-0.638,4.745-2.554,5.648-5.096l10.152-28.552c6.057-0.408,12.135-0.408,18.192,0l10.152,28.552
				c0.903,2.542,3.026,4.458,5.648,5.096c10.439,2.551,20.423,6.696,29.6,12.288c2.304,1.407,5.161,1.557,7.6,0.4l27.336-13
				c4.62,3.999,8.966,8.305,13.008,12.888l-13.04,27.328c-1.16,2.441-1.01,5.302,0.4,7.608c5.6,9.187,9.745,19.185,12.288,29.64
				c0.638,2.622,2.554,4.745,5.096,5.648l28.552,10.152c0.2,3.04,0.304,6.088,0.304,9.096S479.896,198.037,479.696,201.077z"/>
			<path d="M344,111.981c-44.183,0-80,35.817-80,80s35.817,80,80,80c44.183,0,80-35.817,80-80
				C423.952,147.818,388.163,112.029,344,111.981z M344,255.981c-35.346,0-64-28.654-64-64c0-35.346,28.654-64,64-64
				c35.346,0,64,28.654,64,64C407.96,227.311,379.33,255.941,344,255.981z"/>
			<path d="M296,327.981H168c-4.418,0-8,3.582-8,8v32c0,4.418,3.582,8,8,8h128c4.418,0,8-3.582,8-8v-32
				C304,331.563,300.418,327.981,296,327.981z M288,359.981H176v-16h112V359.981z"/>
			<path d="M96,303.981c-17.673,0-32,14.327-32,32c0,17.673,14.327,32,32,32s32-14.327,32-32
				C128,318.308,113.673,303.981,96,303.981z M96,351.981c-8.837,0-16-7.163-16-16s7.163-16,16-16s16,7.163,16,16
				S104.837,351.981,96,351.981z"/>
		</g>
	</g>
</g>
<g>
</g>
<g>
</g>
<g>
</g>
<g>
</g>
<g>
</g>
<g>
</g>
<g>
</g>
<g>
</g>
<g>
</g>
<g>
</g>
<g>
</g>
<g>
</g>
<g>
</g>
<g>
</g>
<g>
</g>
</svg>
