<?xml version="1.0" encoding="iso-8859-1"?>
<!-- Generator: Adobe Illustrator 19.0.0, SVG Export Plug-In . SVG Version: 6.00 Build 0)  -->
<svg version="1.1" id="Capa_1" xmlns="http://www.w3.org/2000/svg" xmlns:xlink="http://www.w3.org/1999/xlink" x="0px" y="0px"
	 viewBox="0 0 496 496" style="enable-background:new 0 0 496 496;" xml:space="preserve">
<g>
	<g>
		<g>
			<path d="M440,56h-56v-8c0-4.418-3.582-8-8-8h-8c0-22.056-14.352-40-32-40s-32,17.944-32,40h-8c-4.418,0-8,3.582-8,8v8h-80v-8
				c0-4.418-3.582-8-8-8h-8c0-22.056-14.352-40-32-40s-32,17.944-32,40h-8c-4.418,0-8,3.582-8,8v8H56c-4.418,0-8,3.582-8,8v424
				c0,4.418,3.582,8,8,8h384c4.418,0,8-3.582,8-8V64C448,59.582,444.418,56,440,56z M336,16c8.672,0,16,10.992,16,24h-32
				C320,26.992,327.328,16,336,16z M304,56h64v48h-64V56z M208,72h80v16h-80V72z M160,16c8.672,0,16,10.992,16,24h-32
				C144,26.992,151.328,16,160,16z M128,56h64v48h-64V56z M120,120h80c4.418,0,8-3.582,8-8v-8h80v8c0,4.418,3.582,8,8,8h80
				c4.418,0,8-3.582,8-8v-8h16v344H96V104h16v8C112,116.418,115.582,120,120,120z M432,480H64V72h48v16H88c-4.418,0-8,3.582-8,8v360
				c0,4.418,3.582,8,8,8h320c4.418,0,8-3.582,8-8V96c0-4.418-3.582-8-8-8h-24V72h48V480z"/>
			<path d="M141.656,181.656l32-32l-11.312-11.312L136,164.688l-10.344-10.344l-11.312,11.312l16,16
				C133.468,184.779,138.532,184.779,141.656,181.656z"/>
			<path d="M141.656,245.656l32-32l-11.312-11.312L136,228.688l-10.344-10.344l-11.312,11.312l16,16
				C133.468,248.779,138.532,248.779,141.656,245.656z"/>
			<path d="M141.656,309.656l32-32l-11.312-11.312L136,292.688l-10.344-10.344l-11.312,11.312l16,16
				C133.468,312.779,138.532,312.779,141.656,309.656z"/>
			<rect x="192" y="136" width="192" height="16"/>
			<rect x="192" y="168" width="112" height="16"/>
			<rect x="192" y="200" width="192" height="16"/>
			<rect x="192" y="232" width="112" height="16"/>
			<rect x="192" y="264" width="192" height="16"/>
			<rect x="192" y="296" width="112" height="16"/>
			<rect x="192" y="328" width="192" height="16"/>
			<rect x="192" y="360" width="112" height="16"/>
			<polygon points="125.656,389.656 144,371.312 162.344,389.656 173.656,378.344 155.312,360 173.656,341.656 162.344,330.344 
				144,348.688 125.656,330.344 114.344,341.656 132.688,360 114.344,378.344 			"/>
			<rect x="304" y="416" width="80" height="16"/>
		</g>
	</g>
</g>
<g>
</g>
<g>
</g>
<g>
</g>
<g>
</g>
<g>
</g>
<g>
</g>
<g>
</g>
<g>
</g>
<g>
</g>
<g>
</g>
<g>
</g>
<g>
</g>
<g>
</g>
<g>
</g>
<g>
</g>
</svg>
