<?xml version="1.0" encoding="iso-8859-1"?>
<!-- Generator: Adobe Illustrator 19.0.0, SVG Export Plug-In . SVG Version: 6.00 Build 0)  -->
<svg version="1.1" id="Capa_1" xmlns="http://www.w3.org/2000/svg" xmlns:xlink="http://www.w3.org/1999/xlink" x="0px" y="0px"
	 viewBox="0 0 496 496" style="enable-background:new 0 0 496 496;" xml:space="preserve">
<g>
	<g>
		<g>
			<path d="M488,240h-48c-4.418,0-8,3.582-8,8v8h-16v-24c0.001-3.032-1.712-5.805-4.424-7.16l-64-32v0.072
				c-1.104-0.581-2.329-0.893-3.576-0.912h-56v-32h32c4.418,0,8-3.582,8-8v-48c0-4.418-3.582-8-8-8H176c-4.418,0-8,3.582-8,8v48
				c0,4.418,3.582,8,8,8h32v32h-56c-2.125,0-4.163,0.847-5.664,2.352l-32,32L84.688,256H64v-32c0-4.418-3.582-8-8-8H8
				c-4.418,0-8,3.582-8,8v144c0,4.418,3.582,8,8,8h48c4.418,0,8-3.582,8-8v-32h20.688l29.656,29.656l32,32
				c1.5,1.5,3.534,2.344,5.656,2.344h256c4.418,0,8-3.582,8-8v-24h16v8c0,4.418,3.582,8,8,8h48c4.418,0,8-3.582,8-8V248
				C496,243.582,492.418,240,488,240z M48,360H16V232h32V360z M80,320H64v-48h16V320z M112,340.688l-16-16v-57.376l16-16V340.688z
				 M144,372.688l-16-16V235.312l16-16V372.688z M184,144v-32h128v32H184z M272,160v32h-48v-32H272z M336,384H160V208h176V384z
				 M400,384h-48V212.944l48,24V384z M432,352h-16v-80h16V352z M480,368h-32V256h32V368z"/>
			<path d="M179.42,318.556c1.343,0.939,2.941,1.443,4.58,1.444h35.056l-18.216,36.424c-1.975,3.952-0.372,8.757,3.581,10.732
				c2.613,1.306,5.73,1.083,8.131-0.58l104-72c3.632-2.516,4.536-7.5,2.02-11.132c-1.494-2.156-3.949-3.443-6.572-3.444h-44.688
				l42.344-42.344c3.124-3.125,3.123-8.19-0.002-11.314c-1.5-1.499-3.534-2.342-5.654-2.342h-64
				c-2.611,0.001-5.056,1.276-6.552,3.416l-56,80C174.916,311.037,175.799,316.025,179.42,318.556z M244.168,240h40.52
				l-42.344,42.344c-3.124,3.125-3.123,8.19,0.002,11.314c1.5,1.499,3.534,2.342,5.654,2.342h38.4l-57.28,39.648l10.08-20.072
				c1.975-3.952,0.372-8.757-3.58-10.732c-1.124-0.562-2.364-0.851-3.62-0.844h-32.632L244.168,240z"/>
		</g>
	</g>
</g>
<g>
</g>
<g>
</g>
<g>
</g>
<g>
</g>
<g>
</g>
<g>
</g>
<g>
</g>
<g>
</g>
<g>
</g>
<g>
</g>
<g>
</g>
<g>
</g>
<g>
</g>
<g>
</g>
<g>
</g>
</svg>
