<?xml version="1.0" encoding="iso-8859-1"?>
<!-- Generator: Adobe Illustrator 19.0.0, SVG Export Plug-In . SVG Version: 6.00 Build 0)  -->
<svg version="1.1" id="Capa_1" xmlns="http://www.w3.org/2000/svg" xmlns:xlink="http://www.w3.org/1999/xlink" x="0px" y="0px"
	 viewBox="0 0 496 496" style="enable-background:new 0 0 496 496;" xml:space="preserve">
<g>
	<g>
		<g>
			<path d="M288,32H128c-4.418,0-8,3.582-8,8v128c0,4.418,3.582,8,8,8h160c4.418,0,8-3.582,8-8V40C296,35.582,292.418,32,288,32z
				 M280,160H136V48h144V160z"/>
			<path d="M446.624,371.312l-8.568-8.568c-9.031-8.983-14.092-21.206-14.056-33.944V104c0-2.122-0.844-4.156-2.344-5.656l-32-32
				c-1.5-1.5-3.534-2.344-5.656-2.344h-24V40c0-4.418-3.582-8-8-8h-24V8c0-4.418-3.582-8-8-8H96c-4.418,0-8,3.582-8,8v440H48
				c-4.418,0-8,3.582-8,8v32c0,4.418,3.582,8,8,8h320c4.418,0,8-3.582,8-8v-32c0-4.418-3.582-8-8-8h-40V272h16
				c13.255,0,24,10.745,24,24v72.8c-0.047,16.981,6.703,33.275,18.744,45.248l8.568,8.568c5.986,6.028,14.137,9.407,22.632,9.384
				H424c17.673,0,32-14.327,32-32v-6.056C456.025,385.45,452.648,377.3,446.624,371.312z M104,16h208v432H104V16z M360,464v16H56
				v-16H360z M392,91.312l16,16V128h-16V91.312z M328,48h16v80h-16V48z M440,400c0,8.837-7.163,16-16,16h-6.056
				c-4.248,0.013-8.325-1.675-11.32-4.688l-8.568-8.568c-9.031-8.983-14.092-21.206-14.056-33.944V296
				c-0.026-22.08-17.92-39.974-40-40h-16V144h24c4.418,0,8-3.582,8-8V80h16v56c0,4.418,3.582,8,8,8h24v184.8
				c-0.047,16.981,6.703,33.275,18.744,45.248l8.568,8.568c3.014,2.997,4.703,7.077,4.688,11.328V400z"/>
			<path d="M215.2,260.424c-2.358-3.954-7.475-5.249-11.429-2.891c-1.189,0.709-2.182,1.702-2.891,2.891l-32,64
				c-0.567,1.107-0.869,2.332-0.88,3.576c0,22.091,17.909,40,40,40s40-17.909,40-40c0.001-1.241-0.286-2.465-0.84-3.576
				L215.2,260.424z M208,352c-12.572,0-23.014-9.702-23.936-22.24L208,281.888l23.936,47.872C231.014,342.298,220.572,352,208,352z"
				/>
			<path d="M208,224c-48.601,0-88,39.399-88,88c0,48.601,39.399,88,88,88s88-39.399,88-88C295.943,263.423,256.577,224.057,208,224z
				 M208,384c-39.764,0-72-32.236-72-72c0-39.765,32.236-72,72-72c39.765,0,72,32.235,72,72
				C279.951,351.744,247.744,383.951,208,384z"/>
			<rect x="152" y="64" width="16" height="32"/>
			<rect x="184" y="64" width="16" height="32"/>
			<rect x="216" y="64" width="16" height="32"/>
			<rect x="248" y="64" width="16" height="32"/>
			<rect x="152" y="112" width="112" height="16"/>
		</g>
	</g>
</g>
<g>
</g>
<g>
</g>
<g>
</g>
<g>
</g>
<g>
</g>
<g>
</g>
<g>
</g>
<g>
</g>
<g>
</g>
<g>
</g>
<g>
</g>
<g>
</g>
<g>
</g>
<g>
</g>
<g>
</g>
</svg>
