<?xml version="1.0" encoding="iso-8859-1"?>
<!-- Generator: Adobe Illustrator 19.0.0, SVG Export Plug-In . SVG Version: 6.00 Build 0)  -->
<svg version="1.1" id="Capa_1" xmlns="http://www.w3.org/2000/svg" xmlns:xlink="http://www.w3.org/1999/xlink" x="0px" y="0px"
	 viewBox="0 0 496.001 496.001" style="enable-background:new 0 0 496.001 496.001;" xml:space="preserve">
<g>
	<g>
		<g>
			<path d="M488.001,344.001c4.418,0,8-3.582,8-8v-272c0-2.122-0.844-4.156-2.344-5.656l-16-16c-1.5-1.5-3.534-2.344-5.656-2.344
				h-88v-32c0-4.418-3.582-8-8-8h-96c-4.418,0-8,3.582-8,8v32h-176v-8c0-4.418-3.582-8-8-8h-48c-2.654,0.031-5.112,1.401-6.536,3.64
				l-0.12-0.08l-32,48c-1.794,2.688-1.794,6.192,0,8.88l32,48l0.12-0.08c1.424,2.239,3.882,3.609,6.536,3.64h48c4.418,0,8-3.582,8-8
				v-8h16v24c0,4.418,3.582,8,8,8h8v16h-8c-4.418,0-8,3.582-8,8v24h-32c-4.418,0-8,3.582-8,8v32c0.026,1.291,0.372,2.556,1.008,3.68
				l-30.664,30.664c-1.5,1.5-2.344,3.534-2.344,5.656v208c0,4.418,3.582,8,8,8h208c4.418,0,8-3.582,8-8v-208
				c0-2.122-0.844-4.156-2.344-5.656l-30.664-30.664c0.636-1.124,0.982-2.389,1.008-3.68v-32c0-4.418-3.582-8-8-8h-32v-24
				c0-4.418-3.582-8-8-8h-8v-16h8c4.418,0,8-3.582,8-8v-24h80v20.688l-29.656,29.656c-1.5,1.5-2.344,3.534-2.344,5.656v16
				c0,4.418,3.582,8,8,8h32c2.122,0,4.156-0.844,5.656-2.344l32-32c1.5-1.5,2.344-3.534,2.344-5.656v-40h16v24
				c0,2.122,0.844,4.156,2.344,5.656l29.656,29.656v100.688h-24c-4.418,0-8,3.582-8,8v48c0,4.418,3.582,8,8,8h72v16h-8
				c-4.418,0-8,3.582-8,8v48c0,4.418,3.582,8,8,8h80c4.418,0,8-3.582,8-8v-48c0-4.418-3.582-8-8-8h-8v-16H488.001z M32.001,101.601
				l-14.4-21.6l14.4-21.6V101.601z M80.001,120.001h-32v-80h32V120.001z M288.001,16.001h80v24h-80V16.001z M128.001,184.001h48v16
				h-48V184.001z M144.001,168.001v-16h16v16H144.001z M248.001,480.001h-192v-68.688l20.28-20.28
				c4.494-4.515,10.606-7.047,16.976-7.032h5.488c6.37-0.015,12.482,2.517,16.976,7.032l13.248,13.248
				c7.486,7.527,17.672,11.747,28.288,11.72h5.488c10.616,0.027,20.802-4.193,28.288-11.72l13.248-13.248
				c4.494-4.515,10.606-7.047,16.976-7.032h5.488c6.37-0.015,12.482,2.517,16.976,7.032l4.28,4.28V480.001z M248.001,283.313v90.896
				c-6.352-4.046-13.725-6.199-21.256-6.208h-5.488c-10.616-0.027-20.802,4.193-28.288,11.72l-13.248,13.248
				c-4.492,4.518-10.605,7.051-16.976,7.032h-5.488c-6.371,0.018-12.484-2.514-16.976-7.032l-13.248-13.248
				c-7.486-7.527-17.672-11.747-28.288-11.72h-5.488c-10.616-0.027-20.802,4.193-28.288,11.72l-8.968,8.968V283.313l35.312-35.312
				h121.376L248.001,283.313z M216.001,216.001v16h-128v-16H216.001z M176.001,136.001h-48v-16h48V136.001z M224.001,104.001h-128
				v-48h128V104.001z M240.001,104.001v-16h32v16H240.001z M304.001,156.689l-27.312,27.312h-20.688v-4.688l29.656-29.656
				c1.5-1.5,2.344-3.534,2.344-5.656v-56h16V156.689z M320.001,104.001v-16h32v16H320.001z M352.001,140.689v-20.688h8
				c4.418,0,8-3.582,8-8v-32c0-4.418-3.582-8-8-8h-120v-16h228.688l11.312,11.312v212.688h-96v-32h24v-16h-24v-32h24v-16h-24v-8
				c0-2.122-0.844-4.156-2.344-5.656L352.001,140.689z M480.001,408.001h-64v-32h64V408.001z M432.001,360.001v-16h32v16H432.001z
				 M352.001,328.001v-32h128v32H352.001z"/>
			<path d="M472.001,432.001h-48c-4.418,0-8,3.582-8,8s3.582,8,8,8h48c4.418,0,8-3.582,8-8S476.419,432.001,472.001,432.001z"/>
			<path d="M464.001,456.001h-32c-4.418,0-8,3.582-8,8s3.582,8,8,8h32c4.418,0,8-3.582,8-8S468.419,456.001,464.001,456.001z"/>
			<path d="M456.001,480.001h-16c-4.418,0-8,3.582-8,8s3.582,8,8,8h16c4.418,0,8-3.582,8-8S460.419,480.001,456.001,480.001z"/>
			<rect x="72.001" y="416.001" width="16" height="16"/>
			<rect x="88.001" y="448.001" width="16" height="16"/>
			<rect x="120.001" y="432.001" width="16" height="16"/>
			<rect x="168.001" y="432.001" width="16" height="16"/>
			<rect x="200.001" y="448.001" width="16" height="16"/>
			<rect x="216.001" y="416.001" width="16" height="16"/>
		</g>
	</g>
</g>
<g>
</g>
<g>
</g>
<g>
</g>
<g>
</g>
<g>
</g>
<g>
</g>
<g>
</g>
<g>
</g>
<g>
</g>
<g>
</g>
<g>
</g>
<g>
</g>
<g>
</g>
<g>
</g>
<g>
</g>
</svg>
