<?xml version="1.0" encoding="iso-8859-1"?>
<!-- Generator: Adobe Illustrator 19.0.0, SVG Export Plug-In . SVG Version: 6.00 Build 0)  -->
<svg version="1.1" id="Capa_1" xmlns="http://www.w3.org/2000/svg" xmlns:xlink="http://www.w3.org/1999/xlink" x="0px" y="0px"
	 viewBox="0 0 496 496" style="enable-background:new 0 0 496 496;" xml:space="preserve">
<g>
	<g>
		<g>
			<path d="M248,0C111.033,0,0,111.033,0,248s111.033,248,248,248s248-111.033,248-248C495.846,111.097,384.903,0.154,248,0z
				 M402,74.688l-17,17c-78.333-68.916-195.667-68.916-274,0l-17-17C181.756-3.564,314.244-3.564,402,74.688z M200,408v-16h96v16
				H200z M296,424v9.92c-31.487,8.107-64.513,8.107-96,0V424H296z M200,376v-24c0-2.122-0.844-4.156-2.344-5.656l-72-72
				c-1.5-1.5-3.534-2.344-5.656-2.344v-32h8c2.122,0,4.156-0.844,5.656-2.344L163.312,208h169.376l29.656,29.656
				c1.5,1.5,3.534,2.344,5.656,2.344h8v32c-2.122,0-4.156,0.844-5.656,2.344l-72,72c-1.5,1.5-2.344,3.534-2.344,5.656v24H200z
				 M116.688,288L184,355.312v73.68C121.102,406.612,74.27,353.267,60.224,288H116.688z M57.552,272
				c-1.015-7.96-1.534-15.976-1.552-24c0-2.68,0.096-5.344,0.2-8H72v32H57.552z M88,272v-32h16v32H88z M312,355.312L379.312,288
				h56.464C421.73,353.267,374.899,406.612,312,428.992V355.312z M392,272v-32h16v32H392z M424,272v-32h15.8
				c0.104,2.656,0.2,5.32,0.2,8c-0.018,8.024-0.537,16.04-1.552,24H424z M371.312,224l-29.656-29.656
				c-1.5-1.5-3.534-2.344-5.656-2.344H160c-2.122,0-4.156,0.844-5.656,2.344L124.688,224H57.552
				C70.761,118.818,166.736,44.26,271.918,57.47c87.044,10.932,155.599,79.487,166.53,166.53H371.312z M410.563,413.597
				C367.178,456.19,308.798,480.036,248,480C119.954,480.086,16.083,376.353,15.997,248.307
				C15.956,187.503,39.803,129.117,82.4,85.728l16.968,16.96c-80.366,82.083-78.975,213.774,3.108,294.14
				s213.774,78.975,294.14-3.108c79.168-80.859,79.168-210.173,0-291.032l16.968-16.96
				C503.288,177.101,501.936,323.892,410.563,413.597z"/>
			<path d="M320,272c0-26.912-31.624-48-72-48c-40.376,0-72,21.088-72,48s31.624,48,72,48C288.376,320,320,298.912,320,272z
				 M248,304c-30.352,0-56-14.656-56-32s25.648-32,56-32s56,14.656,56,32S278.352,304,248,304z"/>
		</g>
	</g>
</g>
<g>
</g>
<g>
</g>
<g>
</g>
<g>
</g>
<g>
</g>
<g>
</g>
<g>
</g>
<g>
</g>
<g>
</g>
<g>
</g>
<g>
</g>
<g>
</g>
<g>
</g>
<g>
</g>
<g>
</g>
</svg>
