<?xml version="1.0" encoding="iso-8859-1"?>
<!-- Generator: Adobe Illustrator 19.0.0, SVG Export Plug-In . SVG Version: 6.00 Build 0)  -->
<svg version="1.1" id="Capa_1" xmlns="http://www.w3.org/2000/svg" xmlns:xlink="http://www.w3.org/1999/xlink" x="0px" y="0px"
	 viewBox="0 0 496.014 496.014" style="enable-background:new 0 0 496.014 496.014;" xml:space="preserve">
<g>
	<g>
		<g>
			<path d="M448.007,184.014c2.122,0,4.156-0.844,5.656-2.344l40-40c1.5-1.5,2.344-3.534,2.344-5.656v-72
				c-0.001-4.418-3.583-7.999-8.002-7.998c-2.121,0-4.154,0.843-5.654,2.342l-42.344,42.344l-44.688-44.688l42.344-42.344
				c3.124-3.125,3.123-8.19-0.002-11.314c-1.5-1.499-3.534-2.342-5.654-2.342h-72c-2.122,0-4.156,0.844-5.656,2.344l-40,40
				c-1.5,1.5-2.344,3.534-2.344,5.656v68.688l-68,68l-50.208-50.208l19.864-19.872c3.123-3.124,3.123-8.188,0-11.312l-12.8-12.8
				l15.2-15.2l2.344,2.344c3.124,3.123,8.188,3.123,11.312,0l24-24c3.123-3.124,3.123-8.188,0-11.312l-40-40
				c-3.124-3.123-8.188-3.123-11.312,0l-24,24c-3.123,3.124-3.123,8.188,0,11.312l2.288,2.36l-15.2,15.2l-12.8-12.8
				c-3.124-3.123-8.188-3.123-11.312,0l-23.856,23.808l-15.864-15.864c-3.124-3.123-8.188-3.123-11.312,0l-40,40
				c-3.123,3.124-3.123,8.188,0,11.312l15.864,15.864l-23.864,23.872c-3.123,3.124-3.123,8.188,0,11.312l0.8,0.8l-40.8,40.8
				c-1.51,1.51-2.354,3.561-2.344,5.696v48c0,2.122,0.844,4.156,2.344,5.656l40,40c1.5,1.5,3.534,2.344,5.656,2.344
				c1.052,0.003,2.093-0.203,3.064-0.608c2.989-1.239,4.937-4.157,4.936-7.392v-28.688l46.48-46.48l0.8,0.8
				c3.124,3.123,8.188,3.123,11.312,0l19.872-19.864l50.224,50.232l-68,68H48.007c-2.122,0-4.156,0.844-5.656,2.344l-40,40
				c-1.5,1.5-2.344,3.534-2.344,5.656v72c0.001,4.418,3.583,7.999,8.002,7.998c2.121,0,4.154-0.843,5.654-2.342l42.344-42.344
				l44.688,44.688l-42.344,42.344c-3.124,3.125-3.123,8.19,0.002,11.314c1.5,1.499,3.534,2.342,5.654,2.342h72
				c2.122,0,4.156-0.844,5.656-2.344l40-40c1.5-1.5,2.344-3.534,2.344-5.656v-68.688l52-52L402.351,493.67
				c3.124,3.123,8.188,3.123,11.312,0l80-80c3.123-3.124,3.123-8.188,0-11.312L327.319,236.014l52-52H448.007z M208.007,19.326
				l28.688,28.688l-12.688,12.688l-28.688-28.688L208.007,19.326z M192.007,51.326l12.688,12.688l-15.2,15.2l-12.688-12.72
				L192.007,51.326z M96.007,67.326l10.208,10.208l-28.688,28.688L67.319,96.014L96.007,67.326z M42.351,250.358
				c-1.5,1.5-2.344,3.534-2.344,5.656v12.688l-24-24v-41.376l38.48-38.512l36.72,36.72L42.351,250.358z M108.959,196.702l-49.6-49.6
				l87.696-87.776l49.6,49.64L108.959,196.702z M145.799,182.494l36.688-36.688l70.208,70.208l-36.688,36.688L145.799,182.494z
				 M170.351,370.358c-1.5,1.5-2.344,3.534-2.344,5.656v68.688l-35.312,35.312H83.319l34.344-34.344
				c3.123-3.124,3.123-8.188,0-11.312l-56-56c-3.124-3.123-8.188-3.123-11.312,0l-34.344,34.344v-49.376l35.312-35.312h68.688
				c2.122,0,4.156-0.844,5.656-2.344l70.344-70.344l12,12v28.688c0,2.122,0.844,4.156,2.344,5.656l14.344,14.344L170.351,370.358z
				 M476.695,408.014l-68.688,68.688l-184-184v-25.376l43.312-43.312h25.376L476.695,408.014z M370.351,170.358l-54.344,54.344
				l-14.344-14.344c-1.5-1.5-3.534-2.344-5.656-2.344h-28.688l-12-12l70.344-70.344c1.5-1.5,2.344-3.534,2.344-5.656V51.326
				l35.312-35.312h49.376l-34.344,34.344c-3.123,3.124-3.123,8.188,0,11.312l56,56c3.124,3.123,8.188,3.123,11.312,0l34.344-34.344
				v49.376l-35.312,35.312h-68.688C373.886,168.015,371.851,168.858,370.351,170.358z"/>
			<path d="M272.007,248.014v16h12.688L426.351,405.67l11.312-11.312l-144-144c-1.5-1.5-3.534-2.344-5.656-2.344H272.007z"/>
		</g>
	</g>
</g>
<g>
</g>
<g>
</g>
<g>
</g>
<g>
</g>
<g>
</g>
<g>
</g>
<g>
</g>
<g>
</g>
<g>
</g>
<g>
</g>
<g>
</g>
<g>
</g>
<g>
</g>
<g>
</g>
<g>
</g>
</svg>
