<?xml version="1.0" encoding="iso-8859-1"?>
<!-- Generator: Adobe Illustrator 19.0.0, SVG Export Plug-In . SVG Version: 6.00 Build 0)  -->
<svg version="1.1" id="Capa_1" xmlns="http://www.w3.org/2000/svg" xmlns:xlink="http://www.w3.org/1999/xlink" x="0px" y="0px"
	 viewBox="0 0 496.035 496.035" style="enable-background:new 0 0 496.035 496.035;" xml:space="preserve">
<g>
	<g>
		<g>
			<path d="M184.029,192.023c-66.274,0-120,53.726-120,120s53.726,120,120,120s120-53.726,120-120
				C303.954,245.779,250.272,192.097,184.029,192.023z M184.029,416.023c-57.438,0-104-46.562-104-104s46.562-104,104-104
				s104,46.562,104,104C287.963,369.433,241.439,415.956,184.029,416.023z"/>
			<path d="M184.029,224.023c-48.601,0-88,39.399-88,88c0,48.601,39.399,88,88,88s88-39.399,88-88
				C271.972,263.445,232.607,224.08,184.029,224.023z M199.085,241.623h-0.024l-16.104,48.288l-20.672-46.52
				C174.186,239.594,186.875,238.985,199.085,241.623z M147.693,249.967v-0.008l24.528,55.2l-60.152,6.008
				C112.389,285.931,125.907,262.707,147.693,249.967z M113.629,327.102l53.056-5.304l-31.944,42.584
				C124.079,354.39,116.714,341.386,113.629,327.102z M147.549,373.991l-0.016,0l36.496-48.64l36.48,48.64
				C198.028,387.366,170.03,387.366,147.549,373.991z M233.301,364.383l-0.016,0.008l-31.944-42.584l53.056,5.304
				C251.315,341.389,243.957,354.39,233.301,364.383z M194.781,305.055l19.44-58.312c25.169,11.642,41.415,36.703,41.768,64.432
				L194.781,305.055z"/>
			<path d="M424.029,81.495V56.023h-16v25.472c-12.465,4.44-18.971,18.145-14.531,30.611c4.44,12.465,18.145,18.971,30.611,14.531
				c9.56-3.406,15.938-12.465,15.92-22.614C439.987,93.888,433.584,84.873,424.029,81.495z M416.029,112.023c-4.418,0-8-3.582-8-8
				s3.582-8,8-8s8,3.582,8,8S420.448,112.023,416.029,112.023z"/>
			<path d="M444.029,240.023c-11.046,0-20-8.954-20-20v-60.408c43.961-4.418,76.017-43.638,71.599-87.599
				S451.991-4.002,408.029,0.417s-76.017,43.638-71.599,87.599c3.805,37.855,33.744,67.794,71.599,71.599v60.408
				c0.022,19.873,16.127,35.978,36,36c11.046,0,20,8.954,20,20v152c0,11.046-8.954,20-20,20h-24c-11.046,0-20-8.954-20-20v-116
				c0-4.418-3.582-8-8-8h-24.2c-4.418-101.524-90.302-180.244-191.826-175.826S-4.241,218.498,0.177,320.023
				c4.418,101.524,90.302,180.244,191.826,175.826c95.335-4.149,171.677-80.491,175.826-175.826h16.2v108
				c0.022,19.873,16.127,35.978,36,36h24c19.873-0.022,35.978-16.127,36-36v-152C480.007,256.149,463.902,240.045,444.029,240.023z
				 M362.213,114.795c-6.673-10.368-10.21-22.443-10.184-34.773c0-12.242,3.536-24.224,10.184-34.504l16.16,16.16l11.312-11.312
				l-17.152-17.152c9.79-9.139,22.209-14.961,35.496-16.64v23.448h16V16.575c13.286,1.679,25.706,7.501,35.496,16.64l-17.152,17.152
				l11.312,11.312l16.16-16.16c19.13,29.722,10.544,69.324-19.178,88.455C420.946,153.103,381.343,144.517,362.213,114.795z
				 M184.029,480.023c-92.784,0-168-75.216-168-168s75.216-168,168-168s168,75.216,168,168
				C351.923,404.763,276.769,479.917,184.029,480.023z"/>
		</g>
	</g>
</g>
<g>
</g>
<g>
</g>
<g>
</g>
<g>
</g>
<g>
</g>
<g>
</g>
<g>
</g>
<g>
</g>
<g>
</g>
<g>
</g>
<g>
</g>
<g>
</g>
<g>
</g>
<g>
</g>
<g>
</g>
</svg>
